<?xml version="1.0" encoding="UTF-8"?> <svg xmlns="http://www.w3.org/2000/svg" viewBox="0 0 255.12 31.46"><defs><style>.cls-1{fill:#e50056;}</style></defs><g id="Ebene_2" data-name="Ebene 2"><g id="Ebene_1-2" data-name="Ebene 1"><path class="cls-1" d="M0,0H7l9,25.12L25.35,0h7L20,31H12ZM37.62,0H44V31H37.62ZM49.48,0h7l9,25.12L74.82,0h7L69.49,31h-8ZM93.66,0h7.48l12,31h-6.47l-2.37-6.2H90.2L87.78,31H81.3ZM91.84,20.06h10.84L97.4,6.34Zm55-10-10.4,12.5h-1.13L125,10.07V31H118.6V0h5.74l11.59,13.81L147.5,0h5.75V31h-6.38ZM171.08,0h7.48l12,31h-6.47l-2.37-6.2H167.62L165.2,31h-6.47Zm-1.82,20.06h10.85L174.82,6.34Zm32.06-1.32L189.19.46V0h7.11l8.21,12.86L212.71,0h7.12V.46L207.7,18.69V31h-6.38ZM224.62,0h13.63c6.11,0,12.35,2.46,12.35,10.07,0,5.16-3.78,8.85-8.75,9.62,2.92,2.83,5.93,6.25,9.17,6.25a9.14,9.14,0,0,0,3.46-.73l.64,5.06A11.71,11.71,0,0,1,250,31.46c-6.93,0-12-8.76-15.91-11.63H231V31h-6.38ZM231,5.56v9.26h7.93c2.92,0,5-1.74,5-4.61,0-3.05-2.1-4.65-5-4.65Z"></path></g></g></svg> 